<?xml version="1.0" encoding="utf-8"?>
<!--SvgWriter version 0.0.0.0-->
<svg xmlns:xlink="http://www.w3.org/1999/xlink" width="753.83333333333" height="470" id="svg2" version="1.1" xmlns="http://www.w3.org/2000/svg">
  <g transform="translate(10.833333333333371,970)">
    <!--Edges-->
    <path fill="none" stroke="#000000" stroke-opacity="1" stroke-width="1" d="M 277.73333333333 -780 L 267 -762.5 C251.66666666667 -737.5 247.83333333333 -714.16666666667 255.5 -692.5 L 256.58729041869 -689.42722272979" />
    <polygon stroke="#000000" stroke-opacity="1" stroke-width="1" fill="#000000" fill-opacity="1" points="254.49732545101 -688.68769666431 259.92307692308 -680 258.67725538637 -690.16674879528" />
    <text x="-.83333333333" y="-705" font-family="Arial" font-size="16" fill="#000000">
      <tspan x="-.83333333333" dy="0">IntermediateCertifier</tspan>
    </text>
    <path fill="none" stroke="#000000" stroke-opacity="1" stroke-width="1" d="M 267 -640 L 267 -560" />
    <polygon stroke="#000000" stroke-opacity="1" stroke-width="1" fill="#000000" fill-opacity="1" points="264.78305336833 -560 267 -550 269.21694663167 -560" />
    <text x="267" y="-575" font-family="Arial" font-size="16" fill="#000000">
      <tspan x="267" dy="0">RootCertifier</tspan>
    </text>
    <path fill="none" stroke="#000000" stroke-opacity="1" stroke-width="1" d="M 274.07692307692 -680 L 278.5 -692.5 C286.16666666667 -714.16666666667 290 -737.5 290 -762.5 L 290 -770" />
    <polygon stroke="#000000" stroke-opacity="1" stroke-width="1" fill="#000000" fill-opacity="1" points="292.21694663167 -770 290 -780 287.78305336833 -770" />
    <text x="290" y="-705" font-family="Arial" font-size="16" fill="#000000">
      <tspan x="290" dy="0">ServerCertifier</tspan>
    </text>
    <path fill="none" stroke="#000000" stroke-opacity="1" stroke-width="1" d="M 348.76923076923 -920 L 457.125 -883.125 C473.04166666667 -877.70833333333 481 -868.75 481 -856.25 L 481 -743.75 C481 -731.25 472.08333333333 -722.29166666667 454.25 -716.875 L 342.41451564481 -682.90627811642" />
    <polygon stroke="#000000" stroke-opacity="1" stroke-width="1" fill="#000000" fill-opacity="1" points="341.77020929673 -685.02753286243 332.84615384615 -680 343.0588219929 -680.7850233704" />
    <text x="481" y="-780" font-family="Arial" font-size="16" fill="#000000">
      <tspan x="481" dy="0">IntermediateCertifier</tspan>
    </text>
    <path fill="none" stroke="#000000" stroke-opacity="1" stroke-width="1" d="M 290 -920 L 290 -830" />
    <polygon stroke="#000000" stroke-opacity="1" stroke-width="1" fill="#000000" fill-opacity="1" points="287.78305336833 -830 290 -820 292.21694663167 -830" />
    <text x="290" y="-855" font-family="Arial" font-size="16" fill="#000000">
      <tspan x="290" dy="0">ServerCertifier</tspan>
    </text>
    <!--nodes-->
    <rect fill="none" stroke="#000000" stroke-opacity="1" stroke-width="1" x="177" y="-550" width="180" height="40" rx="3" ry="3" />
    <text x="213" y="-516.66666666667" font-family="Arial" font-size="16" fill="#000000">
      <tspan x="213" dy="0">localhost:18001</tspan>
    </text>
    <rect fill="none" stroke="#000000" stroke-opacity="1" stroke-width="1" x="200" y="-820" width="180" height="40" rx="3" ry="3" />
    <text x="236" y="-786.66666666667" font-family="Arial" font-size="16" fill="#000000">
      <tspan x="236" dy="0">localhost:18005</tspan>
    </text>
    <rect fill="none" stroke="#000000" stroke-opacity="1" stroke-width="1" x="177" y="-680" width="180" height="40" rx="3" ry="3" />
    <text x="213" y="-646.66666666667" font-family="Arial" font-size="16" fill="#000000">
      <tspan x="213" dy="0">localhost:18003</tspan>
    </text>
    <rect fill="none" stroke="#000000" stroke-opacity="1" stroke-width="1" x="200" y="-960" width="180" height="40" rx="3" ry="3" />
    <text x="236" y="-926.66666666667" font-family="Arial" font-size="16" fill="#000000">
      <tspan x="236" dy="0">localhost:18007</tspan>
    </text>
    <!--end of nodes-->
  </g>
</svg>